<?xml version="1.0" standalone="no"?>
<!DOCTYPE svg PUBLIC "-//W3C//DTD SVG 20010904//EN"
 "http://www.w3.org/TR/2001/REC-SVG-20010904/DTD/svg10.dtd">
<svg version="1.0" xmlns="http://www.w3.org/2000/svg"
 width="1024.000000pt" height="1024.000000pt" viewBox="0 0 1024.000000 1024.000000"
 preserveAspectRatio="xMidYMid meet">
<metadata>
Created by potrace 1.16, written by Peter Selinger 2001-2019
</metadata>
<g transform="translate(0.000000,1024.000000) scale(0.100000,-0.100000)"
fill="#000000" stroke="none">
<path d="M3400 8783 c-138 -14 -308 -60 -438 -119 -128 -58 -267 -158 -388
-278 -162 -161 -258 -316 -318 -516 -54 -180 -51 -41 -51 -2705 0 -2346 1
-2485 18 -2565 55 -260 169 -472 348 -646 159 -153 351 -265 559 -325 217 -62
133 -60 2018 -56 1712 3 1717 3 1803 24 187 47 332 108 474 201 93 61 280 249
340 342 100 156 172 342 195 509 7 49 10 797 10 2233 l0 2160 -868 874 -867
874 -1400 -2 c-770 0 -1416 -3 -1435 -5z m2700 -1016 c0 -631 0 -633 63 -751
73 -138 201 -235 364 -277 71 -18 110 -19 433 -19 195 0 401 0 458 0 l102 0 0
-1997 c0 -2161 2 -2055 -53 -2193 -38 -92 -85 -165 -160 -246 -82 -88 -178
-154 -290 -199 -170 -69 -73 -66 -1977 -63 l-1715 3 -90 28 c-222 70 -403 222
-508 426 -90 176 -82 -78 -82 2706 l0 2460 23 78 c46 161 151 324 272 424 79
66 238 146 340 173 72 18 125 19 1448 19 l1372 1 0 -573z"/>
<path d="M3079 7912 c-24 -21 -32 -38 -36 -74 -5 -42 -3 -50 25 -78 l30 -30
1294 0 c1420 0 1321 -4 1348 60 16 38 1 97 -31 126 -21 18 -57 19 -1310 22
l-1288 2 -32 -28z"/>
<path d="M3101 7464 c-39 -16 -61 -51 -61 -97 0 -31 7 -46 34 -73 l34 -34
1271 0 c1076 0 1277 2 1306 14 92 39 81 170 -16 196 -62 17 -2527 11 -2568 -6z"/>
<path d="M3812 7000 l-724 -5 -24 -28 c-35 -41 -33 -95 5 -136 l29 -31 516 0
516 0 103 49 c95 46 333 127 437 149 40 9 36 9 -45 8 -49 0 -416 -3 -813 -6z"/>
<path d="M5415 6975 c72 -18 173 -47 226 -64 53 -17 99 -31 103 -31 11 0 6 51
-9 79 -22 44 -59 51 -264 50 l-186 -1 130 -33z"/>
<path d="M4847 6689 c-199 -27 -446 -114 -591 -207 -318 -204 -544 -522 -631
-887 -52 -215 -53 -485 -5 -692 37 -158 123 -350 227 -506 63 -94 227 -264
333 -343 273 -205 667 -306 1015 -260 204 27 381 82 505 156 l65 40 72 -78
c40 -42 73 -82 73 -88 0 -6 -37 -44 -82 -84 -46 -40 -84 -76 -86 -79 -1 -4 36
-44 83 -90 47 -46 85 -81 85 -76 0 4 9 0 20 -10 11 -10 17 -22 14 -27 -3 -4 0
-7 8 -6 7 2 12 -4 11 -12 -1 -8 170 -189 380 -402 356 -361 387 -389 452 -420
65 -31 77 -33 175 -33 99 0 110 2 172 33 82 40 148 111 179 190 46 120 33 293
-29 389 -15 23 -167 187 -338 365 -170 178 -330 345 -355 372 l-45 48 -283
-273 c-251 -243 -318 -305 -298 -272 4 5 -9 25 -28 43 -19 18 -32 37 -29 41 2
4 -5 6 -17 4 -17 -3 -19 -2 -9 10 7 8 17 12 24 8 6 -3 8 -3 4 2 -11 11 12 36
25 28 6 -3 7 -1 3 5 -10 16 464 484 485 479 32 -9 14 32 -45 98 l-59 67 -63
-63 -64 -63 -37 44 c-21 24 -48 56 -59 69 l-22 26 54 58 c142 153 259 399 316
661 29 133 32 413 5 553 -38 204 -128 420 -243 580 -84 117 -257 286 -365 356
-164 106 -379 195 -564 233 -88 18 -348 26 -438 13z m354 -424 c281 -49 506
-188 674 -416 126 -170 187 -372 187 -619 0 -294 -98 -534 -305 -744 -122
-123 -291 -220 -467 -268 -75 -20 -107 -23 -270 -22 -214 0 -278 13 -436 88
-375 178 -594 536 -594 972 0 262 107 518 299 718 86 89 150 135 267 194 205
103 424 136 645 97z"/>
<path d="M4845 6085 c-135 -30 -280 -102 -384 -191 -103 -89 -211 -253 -255
-386 -70 -216 -54 -450 44 -653 115 -238 310 -401 558 -467 113 -30 327 -30
437 0 244 67 445 232 556 457 73 149 84 200 84 395 0 145 -3 174 -23 240 -98
310 -348 539 -662 606 -81 17 -275 16 -355 -1z m315 -166 c176 -38 347 -148
441 -285 63 -92 118 -246 119 -331 l0 -23 -330 0 -330 0 0 330 0 330 23 -4
c12 -3 47 -10 77 -17z m555 -811 c-13 -77 -64 -202 -111 -271 -249 -366 -784
-411 -1082 -92 -96 102 -163 233 -187 368 l-7 37 697 0 697 0 -7 -42z"/>
<path d="M3093 6405 c-39 -17 -53 -42 -53 -94 0 -31 7 -49 29 -73 l29 -33 221
0 221 0 34 50 c18 28 52 72 75 100 22 27 41 53 41 57 0 5 -127 8 -282 8 -218
-1 -290 -4 -315 -15z"/>
<path d="M6350 6414 c0 -3 14 -19 30 -37 17 -18 54 -65 82 -104 l52 -73 266 0
c307 0 324 4 349 75 12 36 12 45 -3 77 -32 67 -41 68 -430 68 -190 0 -346 -2
-346 -6z"/>
<path d="M3091 5946 c-32 -18 -50 -53 -51 -99 0 -31 7 -46 34 -73 33 -33 36
-34 114 -34 136 0 133 -2 176 103 20 51 39 98 42 105 9 18 -282 17 -315 -2z"/>
<path d="M6661 5908 c12 -29 31 -78 43 -108 l22 -55 176 0 c173 0 177 1 202
24 35 33 42 80 21 125 -29 62 -48 66 -279 66 l-206 0 21 -52z"/>
<path d="M3095 5476 c-61 -26 -75 -118 -26 -167 27 -27 35 -29 104 -29 l75 0
5 33 c4 17 9 65 13 105 l7 72 -74 0 c-41 -1 -88 -7 -104 -14z"/>
<path d="M6783 5453 c4 -21 9 -68 13 -105 l7 -68 133 0 c134 0 134 0 166 29
29 26 33 35 32 77 -1 40 -6 52 -33 76 l-31 28 -146 0 -147 0 6 -37z"/>
<path d="M3069 4991 c-38 -39 -41 -101 -5 -146 24 -29 26 -30 130 -33 123 -4
115 -15 85 117 l-21 91 -80 0 c-75 0 -81 -2 -109 -29z"/>
<path d="M6776 4938 c-10 -46 -20 -93 -23 -105 l-5 -23 153 0 c174 0 195 6
222 63 15 31 17 43 7 71 -21 65 -36 71 -194 74 l-143 3 -17 -83z"/>
<path d="M3066 4529 c-28 -33 -35 -93 -16 -130 23 -42 58 -49 255 -49 102 0
185 2 185 5 0 2 -23 49 -51 105 l-51 100 -148 0 -148 0 -26 -31z"/>
<path d="M6620 4463 c-25 -53 -46 -100 -48 -105 -6 -14 479 -10 508 5 34 17
62 76 54 115 -4 18 -17 43 -30 57 l-23 25 -208 0 -208 0 -45 -97z"/>
<path d="M6900 3990 c66 -63 123 -110 135 -110 37 0 83 37 94 75 10 37 8 51
-12 93 -21 43 -55 52 -199 52 l-133 -1 115 -109z"/>
<path d="M3066 4059 c-36 -43 -36 -98 2 -140 l27 -31 390 -2 390 -3 -102 103
-102 104 -290 0 -289 0 -26 -31z"/>
<path d="M3057 3592 c-15 -16 -17 -51 -17 -285 l0 -267 608 0 609 0 6 122 c4
66 7 195 7 285 l0 163 -598 0 c-568 0 -600 -1 -615 -18z"/>
<path d="M4645 3436 c-16 -7 -41 -26 -55 -41 l-25 -27 -5 -348 c-3 -192 -7
-350 -10 -353 -3 -3 -72 -6 -155 -8 l-150 -4 -6 75 c-6 81 -14 102 -52 139
-27 25 -96 38 -141 27 -32 -8 -85 -53 -96 -82 -5 -12 -10 -52 -11 -88 l-2 -66
-82 0 c-45 0 -116 -3 -157 -6 l-75 -7 -5 80 c-6 99 -26 139 -88 171 -74 38
-148 18 -190 -51 -15 -24 -20 -50 -20 -108 0 -90 7 -85 -140 -88 -80 -2 -98
-6 -117 -23 -30 -28 -36 -62 -19 -103 20 -47 49 -56 170 -53 l101 3 20 -29
c11 -16 36 -38 55 -48 68 -37 175 -9 209 56 l12 21 1072 -3 1072 -2 23 -30
c66 -84 200 -81 256 5 16 24 21 25 122 25 121 0 165 14 184 59 9 23 8 36 -4
65 -22 52 -61 66 -186 66 l-100 0 0 68 c0 81 -21 127 -71 154 -68 36 -168 14
-201 -44 -7 -13 -15 -57 -18 -98 l-5 -75 -152 -3 -153 -3 0 274 c0 268 0 275
-23 308 -60 90 -182 89 -249 -2 -25 -34 -26 -47 -27 -326 l-1 -253 -150 0
-149 0 -3 344 c-3 330 -4 346 -24 372 -47 64 -119 88 -179 60z"/>
</g>
</svg>
