<?xml version="1.0" encoding="utf-8"?>
<!-- Generator: Adobe Illustrator 26.0.3, SVG Export Plug-In . SVG Version: 6.00 Build 0)  -->
<svg version="1.0" id="Layer_1" xmlns="http://www.w3.org/2000/svg" xmlns:xlink="http://www.w3.org/1999/xlink" x="0px" y="0px"
	 viewBox="0 0 290 216" style="enable-background:new 0 0 290 216;" xml:space="preserve">
<style type="text/css">
	.st0{fill:#17151A;}
</style>
<path class="st0" d="M53.3,62.4h59.5v5H88v52c-1.7,0-3.3,0-5,0c0-17.3,0-34.6,0-51.9H58.2c0,17.3,0,34.7,0,52.1
	c0,6.9,5.6,12.4,12.5,12.4c0,0,0,0,0.1,0h29.7c3.5,0,6.9-1.6,9.2-4.2c2-2.3,3.1-5.2,3.1-8.2h4.9c0,3.3,1.4,6.5,3.8,8.9
	c2.3,2.2,5.4,3.5,8.6,3.5h25.6c2.8,0,5.6,0.3,8.2-0.7c4.8-1.7,8-6.1,8.2-11.2c0-3.1,0-6.3,0-9.4c-2.2-2.4-4.6-4.6-6.9-7
	c-7.4-7.4-14.7-14.8-22.1-22.2c1.1-1.2,2.3-2.3,3.5-3.5c10.2,10.1,20.3,20.3,30.5,30.5c0,3.7,0,7.5,0,11.2
	c-0.1,9.4-7.8,17-17.2,17.1c-10.1,0-20.3,0-30.4,0c-5.9-0.2-11.3-3.4-14.3-8.4c-3.1,5.1-8.6,8.3-14.5,8.4H74.3c-2.7,0-5.4,0.2-8-0.6
	c-6.1-1.6-10.8-6.3-12.4-12.4c-0.7-2.5-0.5-5.1-0.6-7.6L53.3,62.4 M126.3,62.8c1.4-0.3,2.8-0.5,4.3-0.5h24.9
	c2.8,0.1,5.6-0.2,8.3,0.4c4.6,1.1,8.6,4,11,8c3.1-5.1,8.5-8.2,14.4-8.4c8.9,0,17.8,0,26.7,0c2.7,0,5.4-0.2,8,0.6
	c6.2,1.7,10.9,6.6,12.4,12.8c0.4,2.4,0.6,4.8,0.4,7.3V112H207v24.8h-29.8c0-1.6,0-3.3,0-5H202V79.7h5c0,9.1,0,18.2,0,27.3
	c8.3,0,16.5,0,24.8,0V79.9c0.1-6.8-5.3-12.4-12.1-12.5c-10.1,0-20.1,0-30.2,0c-3.8,0.1-7.4,1.9-9.7,5c-1.6,2.1-2.5,4.7-2.5,7.4
	c-1.6,0-3.3,0-4.9,0c0-3.3-1.4-6.5-3.7-8.8c-2.3-2.3-5.4-3.6-8.6-3.7h-26.7c-2.2,0-4.5-0.2-6.7,0.5c-5.2,1.6-8.8,6.3-8.9,11.8
	c0,3,0,6,0,9c9.7,9.7,19.3,19.4,29,29.1c-1.2,1.2-2.3,2.3-3.5,3.5c-10.2-10.1-20.3-20.3-30.5-30.5c0-3.9,0-7.8,0-11.7
	C113,71.4,119,64.6,126.3,62.8L126.3,62.8z"/>
<path class="st0" d="M133.4,142.2h2.2v11.2h-1.7c-0.1-0.4-0.3-0.7-0.4-1.1c-0.9,1.3-2.7,1.6-4,0.7c-0.1-0.1-0.2-0.1-0.2-0.2
	c-0.9-1.1-1.3-2.6-1.1-4.1c0-1.3,0.6-2.5,1.7-3.2c1.3-0.6,2.8-0.2,3.7,0.9C133.4,145.1,133.3,143.7,133.4,142.2 M131.2,147.2
	c-1.1,0.8-1,2.4-0.7,3.6c0.3,0.8,1.2,1.2,2,0.9c0.3-0.1,0.6-0.3,0.8-0.7c0.4-1,0.4-2.1,0.1-3.1c-0.3-0.8-1.2-1.2-2-0.8
	C131.3,147.2,131.2,147.2,131.2,147.2 M73.5,142.5c0.7-0.4,2-0.3,2,0.7c0.2,1.2-1.5,1.6-2.2,0.8C73,143.6,73.1,142.9,73.5,142.5
	 M107.2,142.5c0.7-0.4,2-0.3,2,0.7c0.2,0.9-0.8,1.4-1.6,1.2C106.7,144.3,106.5,143,107.2,142.5 M115.8,142.3h2.2c0,3.8,0,7.5,0,11.2
	h-1.7l-0.4-1c-1,1.3-2.8,1.5-4,0.6c-0.2-0.2-0.5-0.4-0.6-0.6c-1-1.8-1-3.9-0.1-5.7c0.8-1.4,2.6-1.8,4-1c0.3,0.2,0.6,0.5,0.8,0.8
	C115.8,145.2,115.8,143.7,115.8,142.3 M113.6,147.3c-0.6,0.6-0.9,1.5-0.8,2.3c-0.1,0.8,0.2,1.6,0.8,2.1c0.7,0.4,1.7,0.2,2.1-0.6
	c0,0,0,0,0-0.1c0.3-1,0.3-2,0.1-3c-0.3-0.8-1.2-1.2-2-0.9C113.7,147.2,113.7,147.3,113.6,147.3 M154,142.3h2.2c0,3.8,0,7.5,0,11.2
	h-1.6c-0.1-0.4-0.3-0.7-0.4-1c-0.9,1.3-2.7,1.6-4,0.6c-0.3-0.2-0.6-0.5-0.8-0.9c-0.8-1.7-0.8-3.7,0-5.4c0.8-1.4,2.6-1.8,4-1
	c0.3,0.2,0.6,0.4,0.8,0.7C154.1,145.2,154,143.8,154,142.3 M151.8,147.4c-1,0.9-1,2.5-0.6,3.6c0.3,0.8,1.2,1.2,2,0.8
	c0.3-0.1,0.6-0.4,0.8-0.7c0.3-1,0.3-2,0-3c-0.3-0.8-1.2-1.2-2-0.9C151.9,147.3,151.9,147.4,151.8,147.4 M178.1,144.7
	c0.1-0.9,0.4-1.9,1.4-2.2s1.8,0.4,2.7,0.7c0.5,0.1,0.7-0.5,0.9-0.8h1c-0.1,0.9-0.5,1.9-1.5,2.2s-1.8-0.6-2.7-0.8
	c-0.5,0-0.6,0.5-0.8,0.8L178.1,144.7 M225.1,142.4h2.2c0,3.8,0,7.5,0,11.2c-0.7,0-1.5,0-2.2,0C225.1,149.9,225.1,146.1,225.1,142.4
	 M53.3,143.1h2.2c0,2.2,0,4.5,0,6.7c-0.1,0.8,0.3,1.5,1,1.9c0.8,0.3,1.6,0.3,2.4-0.1c0.6-0.5,0.9-1.3,0.8-2.1c0-2.1,0-4.3,0-6.4h2.2
	c0,2.3,0,4.6,0,7c0,1.2-0.6,2.3-1.7,2.9c-1.4,0.7-3,0.9-4.5,0.4c-1.4-0.4-2.4-1.7-2.5-3.2c-0.1-2.4,0-4.8,0-7.2 M171.1,143.3
	c1.7-0.7,3.6-0.6,5.2,0.3c-0.2,0.6-0.5,1.2-0.7,1.8c-0.9-0.5-2-0.6-3-0.5c-0.5,0.1-0.9,0.6-0.8,1.2c0.1,0.2,0.2,0.4,0.4,0.6
	c1.1,0.8,2.7,1.1,3.6,2.3c1,1.4,0.6,3.2-0.7,4.2c0,0-0.1,0.1-0.1,0.1c-1.7,0.8-3.7,0.8-5.4,0c0-0.7,0-1.4,0-2.1
	c1.3,0.5,2.7,1.1,4,0.7c0.5-0.2,0.8-0.8,0.5-1.3c-0.1-0.1-0.1-0.2-0.2-0.3c-1.1-0.9-2.7-1.2-3.6-2.3c-1-1.3-0.8-3.1,0.4-4.1
	C170.8,143.5,170.9,143.4,171.1,143.3 M198.6,153.5c0-3.5,0-7,0-10.6c1.8,0.1,3.7-0.3,5.4,0.3c2.5,0.9,2.4,5,0,6
	c-1,0.4-2.1,0.5-3.2,0.5c0,1.2,0,2.5,0,3.7L198.6,153.5 M200.8,144.8v3.1c0.7,0,1.4-0.1,2-0.3c0.7-0.5,1-1.5,0.5-2.2
	c-0.1-0.1-0.1-0.2-0.2-0.2C202.5,144.7,201.6,144.9,200.8,144.8 M65.9,146.5c1.3-1.8,4.8-1.6,5.3,0.7c0.1,2.1,0.2,4.2,0.1,6.3
	c-0.7,0-1.5,0-2.2,0c0-1.6,0-3.1,0-4.7c0.1-0.6-0.1-1.1-0.5-1.5c-0.7-0.4-1.7-0.2-2.1,0.6c-0.1,0.1-0.1,0.3-0.2,0.4
	c-0.2,1.7-0.2,3.5-0.2,5.2h-2.2c0-2.7,0-5.4,0-8h1.7C65.7,145.8,65.8,146.2,65.9,146.5 M86.9,145.7c1.6-0.8,3.6-0.4,4.8,0.9
	c0.6,1,0.8,2.2,0.7,3.4c-1.8,0-3.5,0-5.2,0c0,0.8,0.5,1.5,1.2,1.8c1.2,0.3,2.5,0.1,3.6-0.5v1.7c-1.6,0.7-3.3,0.7-4.9,0.1
	c-1.3-0.7-2.1-2.1-2-3.6C84.8,148,85.6,146.5,86.9,145.7 M87.2,148.5c1.1,0,2.1,0,3.2,0c0-0.9-0.7-1.6-1.6-1.6c0,0,0,0,0,0
	C87.8,146.9,87.4,147.7,87.2,148.5 M95.8,146.8c0.7-1.1,1.9-1.7,3.2-1.5l-0.2,2.1c-1.1-0.1-2.5,0.1-2.8,1.4c-0.1,1.6,0,3.1-0.1,4.7
	c-0.7,0-1.5,0-2.2,0c0-2.7,0-5.3,0-8h1.7C95.5,145.9,95.6,146.4,95.8,146.8 M100.7,145.7c1.6-0.6,3.4-0.5,4.9,0.2l-0.6,1.6
	c-1-0.3-2.2-0.9-3.2-0.3c0,0.1,0,0.4,0,0.5c0.9,0.8,2.2,0.9,3.2,1.7c0.9,0.9,0.9,2.4,0,3.4c-0.2,0.2-0.4,0.3-0.6,0.4
	c-1.6,0.6-3.3,0.6-4.8,0v-1.8c1.1,0.5,2.3,0.7,3.5,0.5c0.3-0.1,0.5-0.5,0.3-0.8c0-0.1-0.1-0.2-0.2-0.2c-0.9-0.7-2.1-0.9-2.9-1.6
	c-0.9-0.8-1-2.1-0.3-3C100.2,146.1,100.4,145.9,100.7,145.7 M120.3,146.1c1.6-0.8,3.4-0.9,5-0.4c0.9,0.4,1.4,1.3,1.4,2.3
	c0,1.8,0,3.6,0,5.5h-1.5c-0.1-0.4-0.3-0.7-0.4-1.1c-1,1.2-2.7,1.6-4.1,0.9c-1.5-0.9-1.5-3.5,0.2-4.2c1.2-0.4,2.5-0.6,3.8-0.5
	c-0.1-0.5-0.1-1.2-0.7-1.5c-1-0.2-2,0-2.9,0.4L120.3,146.1 M121.8,150.9c-0.2,1.2,1.4,1.3,2.1,0.8c0.6-0.4,0.6-1.2,0.6-1.8
	C123.6,149.9,122,149.7,121.8,150.9 M137.4,147.4c0.8-2.4,4.4-2.9,6.2-1.2c1,1,0.9,2.4,0.9,3.7c-1.7,0-3.5,0-5.2,0
	c0,0.8,0.5,1.5,1.2,1.8c1.2,0.3,2.5,0.1,3.6-0.5v1.7c-1.7,0.8-3.8,0.7-5.4-0.2C136.9,151.7,136.7,149.2,137.4,147.4 M139.3,148.4
	c1.1,0,2.1,0,3.2,0c0-0.9-0.7-1.6-1.6-1.6c0,0,0,0-0.1,0C139.9,146.9,139.4,147.7,139.3,148.4 M158.1,147.3c0.9-2.3,4.3-2.8,6-1.2
	c1,1,1,2.4,1,3.7c-1.8,0-3.5,0-5.2,0c0,0.8,0.4,1.4,1.1,1.8c1.2,0.3,2.5,0.1,3.7-0.4c0,0.6,0,1.1,0,1.7c-1.7,0.8-3.7,0.7-5.3-0.1
	C157.5,151.7,157.4,149.2,158.1,147.3 M159.9,148.4c1,0,2.1,0,3.2,0c0-0.9-0.7-1.6-1.5-1.6C160.6,146.7,160,147.6,159.9,148.4
	 M177.9,145.9c1.6-0.8,3.4-0.9,5-0.4c0.9,0.4,1.5,1.3,1.4,2.3c0,1.8,0,3.7,0,5.5h-1.5l-0.4-1.1c-0.9,1.1-2.4,1.5-3.7,1.1
	c-1.9-0.6-2.1-3.6-0.3-4.4c1.2-0.4,2.5-0.6,3.8-0.5c-0.1-0.5,0-1.2-0.7-1.5c-1-0.2-2,0-2.9,0.5C178.4,146.9,178.2,146.4,177.9,145.9
	 M179.5,150.9c-0.2,1.2,1.4,1.3,2.1,0.8c0.6-0.4,0.6-1.2,0.6-1.8C181.3,149.9,179.8,149.6,179.5,150.9 M188.5,145.4
	c1.6-0.5,3.3,0,4.4,1.3c0.9,1.5,1,3.3,0.3,4.9c-1.2,2.6-5.6,2.6-6.9,0C185.3,149.4,185.8,146,188.5,145.4 M189,147.2
	c-1.2,0.8-1,2.4-0.7,3.6c0.3,0.8,1.2,1.2,2,1c0.4-0.1,0.7-0.4,0.9-0.8c0.3-1,0.3-2.1,0-3.1C190.7,147.1,189.8,146.7,189,147.2
	C189,147.1,189,147.1,189,147.2 M207.6,146c1.6-0.8,3.4-0.9,5-0.3c0.9,0.4,1.5,1.4,1.4,2.4c0,1.8,0,3.6,0,5.5h-1.5l-0.4-1.1
	c-1,1.2-2.7,1.6-4.1,0.9c-1.5-0.9-1.5-3.5,0.1-4.2c1.2-0.4,2.5-0.6,3.8-0.5c-0.1-0.5-0.1-1.2-0.6-1.5c-1-0.2-2,0-2.9,0.4
	C208.1,147,207.8,146.5,207.6,146 M209.1,150.9c-0.2,1.2,1.4,1.3,2.1,0.8c0.6-0.4,0.6-1.2,0.6-1.8
	C210.9,149.9,209.4,149.7,209.1,150.9 M231.4,145.4c1.5-0.5,3.2,0,4.2,1.1c1,1.4,1.2,3.3,0.5,4.9c-1.1,2.8-5.7,2.8-6.9,0.2
	C228.2,149.5,228.8,146,231.4,145.4 M231.9,147.2c-1.1,0.8-1,2.4-0.7,3.6c0.3,0.8,1.2,1.2,2,1c0.4-0.1,0.7-0.4,0.9-0.8
	c0.3-1,0.3-2.1,0-3.1C233.7,147.1,232.7,146.8,231.9,147.2C231.9,147.2,231.9,147.2,231.9,147.2 M73.3,153.5c0-2.7,0-5.3,0-8h2.2v8
	C74.7,153.5,74,153.5,73.3,153.5 M76.2,145.5h2.3c0.8,2,1.4,4,1.9,6.1c0.5-2.1,1.1-4.1,1.9-6.1c0.8,0,1.5,0,2.3,0
	c-1,2.7-2,5.4-3.1,8c-0.8,0-1.5,0-2.3,0C78.3,150.8,77.3,148.1,76.2,145.5 M106.9,153.5c0-2.7,0-5.4,0-8.1c0.7,0,1.4,0,2.2,0v8
	L106.9,153.5 M215.9,145.4h2.2c0,1.8-0.1,3.6,0.1,5.4c0.1,0.7,0.7,1.2,1.4,1.1c0.1,0,0.2,0,0.3-0.1c0.7-0.2,1.2-0.9,1.2-1.7
	c0.1-1.5,0-3.1,0-4.6h2.2v8h-1.7c-0.1-0.4-0.2-0.7-0.3-1.1c-1.3,1.8-5,1.6-5.3-0.9C215.8,149.5,216,147.4,215.9,145.4L215.9,145.4z"
	/>
</svg>
